HIERARCHY
ROOT Hips
{
	OFFSET 0.000000 0.000000 0.000000
	CHANNELS 6 Xposition Yposition Zposition Zrotation Yrotation Xrotation 
	JOINT LHipJoint
	{
		OFFSET 0.000000 0.000000 0.000000
		CHANNELS 3 Zrotation Yrotation Xrotation
		JOINT LeftUpLeg
		{
			OFFSET 1.363060 -1.794630 0.839290
			CHANNELS 3 Zrotation Yrotation Xrotation
			JOINT LeftLeg
			{
				OFFSET 2.448110 -6.726130 0.000000
				CHANNELS 3 Zrotation Yrotation Xrotation
				JOINT LeftFoot
				{
					OFFSET 2.562200 -7.039590 0.000000
					CHANNELS 3 Zrotation Yrotation Xrotation
					JOINT LeftToeBase
					{
						OFFSET 0.157640 -0.433110 2.322550
						CHANNELS 3 Zrotation Yrotation Xrotation
						End Site
						{
							OFFSET 0.000000 0.000000 0.000000
						}
					}
				}
			}
		}
	}
	JOINT RHipJoint
	{
		OFFSET 0.000000 0.000000 0.000000
		CHANNELS 3 Zrotation Yrotation Xrotation
		JOINT RightUpLeg
		{
			OFFSET -1.305520 -1.794630 0.839290
			CHANNELS 3 Zrotation Yrotation Xrotation
			JOINT RightLeg
			{
				OFFSET -2.542530 -6.985550 0.000000
				CHANNELS 3 Zrotation Yrotation Xrotation
				JOINT RightFoot
				{
					OFFSET -2.568260 -7.056230 0.000000
					CHANNELS 3 Zrotation Yrotation Xrotation
					JOINT RightToeBase
					{
						OFFSET -0.164730 -0.452590 2.363150
						CHANNELS 3 Zrotation Yrotation Xrotation
						End Site
						{
							OFFSET 0.000000 0.000000 0.000000
						}
					}
				}
			}
		}
	}
}
MOTION
Frames: 30
Frame Time: 0.008333
-11.564307 17.013188 -2.588422 83.369848 88.281814 94.932530 -8.817726 1.369302 4.174609 -13.345458 -3.583145 -33.428553 -2.676914 -0.116212 15.839759 0.318735 2.149509 1.072181 0.683800 -0.000000 -20.699200 11.010435 -4.256061 -0.188018 6.042125 -9.929060 -1.995117 1.128386 -2.256910 30.244577 0.439714 6.445113 5.938075 1.274200 -0.000000 -73.729900
-11.382533 17.028612 -2.583680 84.463888 87.836716 95.792852 -8.727024 1.534095 4.141762 -14.005281 -3.342346 -32.555194 -2.761358 -0.106526 15.989360 0.301418 1.966596 0.648335 0.624700 0.000000 -20.546700 11.299837 -4.223193 -0.312560 5.045153 -11.013707 -3.174487 0.802709 -2.447515 33.008683 0.340993 6.552509 8.216609 1.591200 0.000000 -75.044800
-11.204249 17.043165 -2.579646 84.680278 87.407333 95.816730 -8.648872 1.680406 4.110454 -14.619268 -3.098967 -31.688496 -2.846035 -0.107654 16.087980 0.285635 1.770912 0.136955 0.561800 0.000000 -20.386600 11.555754 -4.158730 -0.419191 4.142320 -11.948561 -4.467454 0.490070 -2.613730 35.845367 0.199457 6.388308 10.329298 1.837700 -0.000000 -75.368600
-11.029452 17.056706 -2.576209 84.154072 87.001870 95.141909 -8.582743 1.809105 4.080326 -15.179648 -2.850523 -30.832724 -2.928307 -0.119530 16.126664 0.273250 1.581896 -0.426729 0.500300 0.000000 -20.216400 11.776113 -4.064286 -0.504169 3.357246 -12.700084 -5.860978 0.198311 -2.758756 38.723123 0.022484 5.884964 12.169678 1.948700 -0.000000 -74.823300
-10.857997 17.069252 -2.573456 82.970784 86.629209 93.854855 -8.530794 1.920597 4.049705 -15.678199 -2.584651 -29.996398 -3.005870 -0.141565 16.101970 0.264716 1.408549 -1.012234 0.442900 0.000000 -20.041200 11.958282 -3.945367 -0.564133 2.712445 -13.246761 -7.342927 -0.067713 -2.887750 41.607297 -0.181608 4.995491 13.644486 1.869100 0.000000 -73.571100
-10.689684 17.081049 -2.571362 81.190760 86.292208 92.011812 -8.494958 2.015765 4.015724 -16.111602 -2.286918 -29.181863 -3.077315 -0.173104 16.008903 0.259876 1.256184 -1.592332 0.391100 0.000000 -19.872900 12.102150 -3.808385 -0.598263 2.216490 -13.584567 -8.898426 -0.306687 -3.006324 44.461729 -0.405174 3.710354 14.681523 1.571200 0.000000 -71.775200
-10.524228 17.092327 -2.569471 78.882946 85.975333 89.672710 -8.469998 2.098127 3.977794 -16.493752 -1.964859 -28.368320 -3.143027 -0.214929 15.822267 0.260645 1.148454 -2.137195 0.348000 -0.000000 -19.732700 12.215859 -3.655671 -0.610645 1.842311 -13.734099 -10.509589 -0.520412 -3.119294 47.252936 -0.641526 2.072287 15.232609 1.068499 -0.000000 -69.573000
-10.361304 17.103568 -2.568264 76.112960 85.687327 86.897760 -8.463648 2.167082 3.930732 -16.813072 -1.587481 -27.570571 -3.201633 -0.264517 15.560526 0.263714 1.063012 -2.639901 0.310400 0.000000 -19.638500 12.295286 -3.496319 -0.599571 1.604292 -13.700523 -12.159237 -0.710293 -3.229527 49.936749 -0.886360 0.140532 15.283215 0.403400 0.000000 -67.058300
-10.200595 17.115122 -2.567571 72.970972 85.415637 83.767254 -8.473997 2.225106 3.873143 -17.077368 -1.157142 -26.774420 -3.253557 -0.321299 15.215479 0.269047 1.004986 -3.087963 0.278600 -0.000000 -19.611300 12.345664 -3.333026 -0.569083 1.477559 -13.511287 -13.826289 -0.878508 -3.338245 52.473945 -1.134467 -1.975859 14.843246 -0.346500 0.000000 -64.283100
-10.041812 17.127339 -2.567407 69.563773 85.151980 80.379223 -8.500576 2.273991 3.803826 -17.290232 -0.676218 -25.969924 -3.298902 -0.384082 14.787334 0.275977 0.972562 -3.476285 0.252000 -0.000000 -19.667200 12.370197 -3.168546 -0.522690 1.441476 -13.192606 -15.489023 -1.026118 -3.445004 54.824041 -1.379713 -4.150134 13.949619 -1.090400 0.000000 -61.270000
-9.884689 17.140482 -2.567888 66.001634 84.891765 76.837085 -8.543830 2.315166 3.722277 -17.451868 -0.148569 -25.151493 -3.337529 -0.451094 14.284683 0.283423 0.958557 -3.806330 0.229600 -0.000000 -19.813200 12.370536 -3.005668 -0.463309 1.480513 -12.769385 -17.127783 -1.153009 -3.548030 56.949204 -1.614268 -6.249941 12.663133 -1.741300 -0.000000 -58.028000
-9.728975 17.154677 -2.569132 62.391911 84.633233 73.243312 -8.603950 2.349976 3.629192 -17.561361 0.417438 -24.315814 -3.369174 -0.520410 13.719324 0.290473 0.955697 -4.082792 0.210300 0.000000 -20.046900 12.347821 -2.846634 -0.393716 1.580981 -12.265944 -18.725224 -1.258087 -3.644609 58.816351 -1.828685 -8.151035 11.063857 -2.230900 -0.000000 -54.572500
-9.574582 17.169848 -2.571019 58.856922 84.371654 69.714644 -8.676719 2.380115 3.527123 -17.623809 0.995699 -23.446933 -3.393673 -0.591180 13.090296 0.298031 0.971680 -4.306371 0.194500 0.000000 -20.361300 12.306387 -2.690959 -0.318977 1.719347 -11.709854 -20.263568 -1.339747 -3.732300 60.400882 -2.012209 -9.745203 9.242389 -2.519000 -0.000000 -50.924100
-9.421313 17.185846 -2.573639 55.466769 84.113539 66.321147 -8.762998 2.406559 3.418056 -17.635685 1.578124 -22.551832 -3.410568 -0.660943 12.419788 0.304830 0.994222 -4.486485 0.181000 -0.000000 -20.736200 12.245632 -2.540578 -0.240257 1.893155 -11.119074 -21.734267 -1.396040 -3.807806 61.684832 -2.155705 -10.963352 7.299668 -2.603100 0.000000 -47.151100
-9.269117 17.202333 -2.576845 52.291074 83.863406 63.132542 -8.859876 2.430736 3.305334 -17.600076 2.146099 -21.630177 -3.419806 -0.728287 11.719426 0.310947 1.022568 -4.628230 0.169600 -0.000001 -21.150400 12.167905 -2.395168 -0.159777 2.093491 -10.512763 -23.131239 -1.425520 -3.868611 62.659804 -2.252329 -11.770291 5.335586 -2.510500 0.000000 -43.354600
-9.117945 17.218856 -2.580308 49.390104 83.625037 60.208888 -8.962845 2.453896 3.191618 -17.523023 2.680099 -20.675516 -3.421598 -0.792610 10.992535 0.316960 1.061141 -4.733024 0.160400 0.000001 -21.583900 12.077001 -2.253232 -0.080646 2.309260 -9.908838 -24.448261 -1.427768 -3.913237 63.325189 -2.299163 -12.168198 3.445099 -2.290300 -0.000000 -39.693200
-8.967764 17.234906 -2.583700 46.793858 83.405928 57.582575 -9.069017 2.477179 3.079249 -17.410498 3.172249 -19.694743 -3.416675 -0.852943 10.251268 0.322386 1.105072 -4.805051 0.153300 -0.000000 -22.016900 11.975268 -2.113913 -0.003052 2.538404 -9.318146 -25.687905 -1.403987 -3.940502 63.688502 -2.298703 -12.198631 1.713840 -2.001800 0.000000 -36.378100
-8.818516 17.249976 -2.586576 44.524615 83.211973 55.279289 -9.174861 2.501698 2.969816 -17.271022 3.619229 -18.694508 -3.406349 -0.908972 9.502921 0.326697 1.150036 -4.845894 0.147900 -0.000000 -22.435500 11.865888 -1.975991 0.073275 2.777680 -8.748621 -26.854883 -1.357074 -3.950214 63.764223 -2.258264 -11.931790 0.207042 -1.699600 0.000000 -33.632900
-8.670181 17.263575 -2.588430 42.597884 83.047569 53.317150 -9.276999 2.528426 2.863800 -17.114832 4.024601 -17.682158 -3.392454 -0.960746 8.753053 0.329107 1.189737 -4.856817 0.144200 -0.000000 -22.833300 11.752108 -1.838274 0.149095 3.023993 -8.205340 -27.956592 -1.291182 -3.943140 63.573317 -2.188940 -11.456459 -1.040030 -1.423000 0.000000 -31.632700
-8.522736 17.275314 -2.588760 41.027075 82.914647 51.710075 -9.372060 2.557884 2.760608 -16.952985 4.394142 -16.659601 -3.376876 -1.009008 7.999421 0.329112 1.221036 -4.836577 0.142200 0.000000 -23.215000 11.637221 -1.699501 0.224161 3.271889 -7.692844 -28.999244 -1.210681 -3.921081 63.141216 -2.103853 -10.867670 -2.030398 -1.192400 -0.000001 -30.436000
-8.375985 17.284877 -2.587125 39.806606 82.816881 50.459322 -9.459404 2.591475 2.660039 -16.794320 4.753870 -15.656161 -3.362879 -1.053282 7.263626 0.323940 1.219199 -4.792672 0.140500 -0.000000 -23.586600 11.522293 -1.560437 0.303704 3.524746 -7.208958 -30.001973 -1.119548 -3.885366 62.497735 -2.017322 -10.260976 -2.801545 -1.012800 0.000001 -29.960300
-8.230025 17.292139 -2.583187 38.945609 82.749156 49.568434 -9.535741 2.628432 2.559236 -16.647657 5.104688 -14.652174 -3.351280 -1.095654 6.523074 0.314700 1.195609 -4.718172 0.139900 -0.000000 -23.972500 11.410392 -1.419368 0.383264 3.769948 -6.759343 -30.960379 -1.020123 -3.839092 61.668794 -1.941049 -9.710953 -3.418730 -0.877200 0.000000 -30.010200
-8.084671 17.297028 -2.576754 38.421943 82.711900 49.019820 -9.602033 2.669665 2.457146 -16.517126 5.475499 -13.675262 -3.344836 -1.135617 5.799482 0.298787 1.125599 -4.621718 0.138700 -0.000000 -24.391500 11.300991 -1.277845 0.467877 4.010899 -6.339952 -31.889900 -0.913819 -3.783363 60.679366 -1.885575 -9.279185 -3.954131 -0.775499 0.000000 -30.334000
-7.939801 17.299673 -2.567764 38.209583 82.700302 48.786992 -9.658368 2.714836 2.351477 -16.404008 5.879581 -12.728290 -3.344558 -1.173656 5.094275 0.275850 1.004322 -4.505669 0.136501 0.000000 -24.868500 11.194128 -1.136344 0.557650 4.244572 -5.949880 -32.792030 -0.800773 -3.719430 59.546116 -1.857440 -8.998626 -4.473946 -0.696801 -0.000000 -30.694700
-7.795327 17.300237 -2.556309 38.267984 82.709951 48.829189 -9.705851 2.763643 2.240581 -16.306045 6.328723 -11.817844 -3.350940 -1.209604 4.415746 0.245609 0.825803 -4.374883 0.132299 -0.000000 -25.424300 11.088944 -0.996006 0.653722 4.470327 -5.586654 -33.667053 -0.680458 -3.647501 58.277455 -1.859600 -8.876534 -5.025224 -0.631101 0.000000 -30.906700
-7.651193 17.298958 -2.542521 38.554638 82.733993 49.102403 -9.744796 2.815337 2.124230 -16.219707 6.818663 -10.939130 -3.363052 -1.243672 3.763125 0.209567 0.599363 -4.231374 0.126200 0.000000 -26.074100 10.985049 -0.857841 0.755549 4.685547 -5.249634 -34.508331 -0.552048 -3.567268 56.874091 -1.890894 -8.893770 -5.630606 -0.569900 0.000000 -30.851500
-7.507168 17.296115 -2.526635 39.004578 82.769869 49.544856 -9.778172 2.869998 2.001357 -16.137807 7.363358 -10.111731 -3.381252 -1.274133 3.163929 0.166846 0.310274 -4.087032 0.116700 -0.000001 -26.820100 10.880480 -0.724795 0.866437 4.895944 -4.934357 -35.315352 -0.414811 -3.477126 55.329567 -1.947107 -9.014247 -6.284406 -0.508200 -0.000000 -30.482600
-7.363297 17.291881 -2.508898 39.571473 82.808577 50.105777 -9.805029 2.925760 1.874065 -16.055806 7.927750 -9.308911 -3.401915 -1.301862 2.598833 0.122069 -0.003300 -3.937361 0.105600 0.000000 -27.659300 10.775679 -0.597524 0.981768 5.097130 -4.644464 -36.070561 -0.268090 -3.376150 53.632433 -2.019308 -9.181821 -6.958041 -0.444300 -0.000000 -29.824000
-7.219381 17.286471 -2.489460 40.198758 82.846923 50.730326 -9.827263 2.982397 1.743435 -15.967565 8.505457 -8.537266 -3.423885 -1.325449 2.085475 0.076206 -0.337854 -3.790436 0.092700 0.000000 -28.574800 10.669840 -0.479308 1.102690 5.294192 -4.378907 -36.767113 -0.111891 -3.262409 51.769638 -2.096877 -9.340432 -7.601164 -0.382299 -0.000000 -28.964500
-7.075368 17.279938 -2.468471 40.842252 82.879052 51.372636 -9.844676 3.038574 1.612236 -15.869643 9.064178 -7.778967 -3.443997 -1.345043 1.614357 0.032879 -0.661649 -3.644862 0.079600 0.000000 -29.544600 10.563576 -0.372143 1.225989 5.488039 -4.140673 -37.390955 0.053486 -3.134549 49.728612 -2.166968 -9.434318 -8.152629 -0.331000 0.000000 -28.047900
